# xmcd
#
# Track frame offsets: 
#        150
#        16075
#        32307
#        47769
#        62909
#        79376
#        96376
#        112377
#        128134
#        145190
#
# Disc length: 2144 seconds
#
# Revision: 0
# Processed by: cddbd v1.5.2PL0 Copyright (c) Steve Scherf et al.
# Submitted via: ExactAudioCopy v0.90b4
#
DISCID=88085e0a
DTITLE=Andy Andy - Placer Y Castigo
DYEAR=2009
DGENRE=Latin
TTITLE0=Yo Te Amo
TTITLE1=Agua Pasada
TTITLE2=Mi Alma Loca
TTITLE3=Placer Y Castigo
TTITLE4=No Eres Nada Para Mi
TTITLE5=La Culpa
TTITLE6=Donde Estarás
TTITLE7=Soy De Llorar
TTITLE8=Nunca Creí En El Amor
TTITLE9=Amore Mio
EXTD=
EXTT0=
EXTT1=
EXTT2=
EXTT3=
EXTT4=
EXTT5=
EXTT6=
EXTT7=
EXTT8=
EXTT9=
PLAYORDER=
